<mxfile host="app.diagrams.net" modified="2020-11-07T16:20:37.568Z" agent="5.0 (Windows)" etag="Tb11_eRq5Idihnv-E_Xb" version="13.7.3" type="github">
  <diagram id="R2lEEEUBdFMjLlhIrx00" name="Page-1">
    <mxGraphModel dx="1736" dy="1036" grid="1" gridSize="10" guides="1" tooltips="1" connect="1" arrows="1" fold="1" page="1" pageScale="1" pageWidth="6000" pageHeight="4000" math="0" shadow="0" extFonts="Permanent Marker^https://fonts.googleapis.com/css?family=Permanent+Marker">
      <root>
        <mxCell id="0" />
        <mxCell id="1" parent="0" />
        <mxCell id="SyLdga9zzhKKT4LGNAI1-1" value="" style="rounded=0;whiteSpace=wrap;html=1;" vertex="1" parent="1">
          <mxGeometry x="1760" y="180" width="120" height="60" as="geometry" />
        </mxCell>
        <mxCell id="SyLdga9zzhKKT4LGNAI1-30" style="edgeStyle=orthogonalEdgeStyle;rounded=0;orthogonalLoop=1;jettySize=auto;html=1;exitX=0.5;exitY=1;exitDx=0;exitDy=0;startArrow=none;startFill=0;endArrow=none;endFill=0;" edge="1" parent="1" source="SyLdga9zzhKKT4LGNAI1-2" target="SyLdga9zzhKKT4LGNAI1-29">
          <mxGeometry relative="1" as="geometry" />
        </mxCell>
        <mxCell id="SyLdga9zzhKKT4LGNAI1-2" value="&lt;font style=&quot;font-size: 33px&quot;&gt;album&lt;/font&gt;" style="rounded=0;whiteSpace=wrap;html=1;" vertex="1" parent="1">
          <mxGeometry x="1040" y="430" width="120" height="60" as="geometry" />
        </mxCell>
        <mxCell id="SyLdga9zzhKKT4LGNAI1-42" style="edgeStyle=orthogonalEdgeStyle;rounded=0;orthogonalLoop=1;jettySize=auto;html=1;exitX=1;exitY=0;exitDx=0;exitDy=0;startArrow=none;startFill=0;endArrow=none;endFill=0;" edge="1" parent="1" source="SyLdga9zzhKKT4LGNAI1-3" target="SyLdga9zzhKKT4LGNAI1-41">
          <mxGeometry relative="1" as="geometry" />
        </mxCell>
        <mxCell id="SyLdga9zzhKKT4LGNAI1-45" style="edgeStyle=orthogonalEdgeStyle;rounded=0;orthogonalLoop=1;jettySize=auto;html=1;exitX=0.5;exitY=1;exitDx=0;exitDy=0;entryX=0;entryY=0.5;entryDx=0;entryDy=0;startArrow=none;startFill=0;endArrow=none;endFill=0;" edge="1" parent="1" source="SyLdga9zzhKKT4LGNAI1-3" target="SyLdga9zzhKKT4LGNAI1-44">
          <mxGeometry relative="1" as="geometry" />
        </mxCell>
        <mxCell id="SyLdga9zzhKKT4LGNAI1-3" value="&lt;font style=&quot;font-size: 26px&quot;&gt;daily mix&lt;br&gt;&lt;/font&gt;" style="rounded=0;whiteSpace=wrap;html=1;" vertex="1" parent="1">
          <mxGeometry x="140" y="570" width="120" height="60" as="geometry" />
        </mxCell>
        <mxCell id="SyLdga9zzhKKT4LGNAI1-50" style="edgeStyle=orthogonalEdgeStyle;rounded=0;orthogonalLoop=1;jettySize=auto;html=1;exitX=0.5;exitY=0;exitDx=0;exitDy=0;entryX=0.5;entryY=1;entryDx=0;entryDy=0;startArrow=none;startFill=0;endArrow=none;endFill=0;" edge="1" parent="1" source="SyLdga9zzhKKT4LGNAI1-4" target="SyLdga9zzhKKT4LGNAI1-48">
          <mxGeometry relative="1" as="geometry" />
        </mxCell>
        <mxCell id="SyLdga9zzhKKT4LGNAI1-51" style="edgeStyle=orthogonalEdgeStyle;rounded=0;orthogonalLoop=1;jettySize=auto;html=1;exitX=0;exitY=0;exitDx=0;exitDy=0;entryX=0.5;entryY=1;entryDx=0;entryDy=0;startArrow=none;startFill=0;endArrow=none;endFill=0;" edge="1" parent="1" source="SyLdga9zzhKKT4LGNAI1-4" target="SyLdga9zzhKKT4LGNAI1-47">
          <mxGeometry relative="1" as="geometry" />
        </mxCell>
        <mxCell id="SyLdga9zzhKKT4LGNAI1-52" style="edgeStyle=orthogonalEdgeStyle;rounded=0;orthogonalLoop=1;jettySize=auto;html=1;exitX=1;exitY=0;exitDx=0;exitDy=0;startArrow=none;startFill=0;endArrow=none;endFill=0;" edge="1" parent="1" source="SyLdga9zzhKKT4LGNAI1-4" target="SyLdga9zzhKKT4LGNAI1-49">
          <mxGeometry relative="1" as="geometry" />
        </mxCell>
        <mxCell id="SyLdga9zzhKKT4LGNAI1-72" style="edgeStyle=orthogonalEdgeStyle;rounded=0;orthogonalLoop=1;jettySize=auto;html=1;exitX=0.75;exitY=1;exitDx=0;exitDy=0;entryX=0.5;entryY=0;entryDx=0;entryDy=0;startArrow=none;startFill=0;endArrow=none;endFill=0;" edge="1" parent="1" source="SyLdga9zzhKKT4LGNAI1-4" target="SyLdga9zzhKKT4LGNAI1-71">
          <mxGeometry relative="1" as="geometry" />
        </mxCell>
        <mxCell id="SyLdga9zzhKKT4LGNAI1-4" value="&lt;font style=&quot;font-size: 29px&quot;&gt;user&lt;/font&gt;" style="rounded=0;whiteSpace=wrap;html=1;" vertex="1" parent="1">
          <mxGeometry x="510" y="1000" width="120" height="60" as="geometry" />
        </mxCell>
        <mxCell id="SyLdga9zzhKKT4LGNAI1-5" value="&lt;font style=&quot;font-size: 26px&quot;&gt;quality&lt;/font&gt;" style="rounded=0;whiteSpace=wrap;html=1;" vertex="1" parent="1">
          <mxGeometry x="1480" y="1305" width="120" height="60" as="geometry" />
        </mxCell>
        <mxCell id="SyLdga9zzhKKT4LGNAI1-6" value="&lt;font style=&quot;font-size: 24px&quot;&gt;premiums&lt;/font&gt;" style="rounded=0;whiteSpace=wrap;html=1;" vertex="1" parent="1">
          <mxGeometry x="1030" y="1280" width="120" height="60" as="geometry" />
        </mxCell>
        <mxCell id="SyLdga9zzhKKT4LGNAI1-7" value="&lt;font style=&quot;font-size: 24px&quot;&gt;made for you&lt;br&gt;&lt;/font&gt;" style="rounded=0;whiteSpace=wrap;html=1;" vertex="1" parent="1">
          <mxGeometry x="300" y="1330" width="120" height="70" as="geometry" />
        </mxCell>
        <mxCell id="SyLdga9zzhKKT4LGNAI1-8" value="&lt;font style=&quot;font-size: 30px&quot;&gt;library&lt;/font&gt;" style="rounded=0;whiteSpace=wrap;html=1;" vertex="1" parent="1">
          <mxGeometry x="1640" y="880" width="120" height="60" as="geometry" />
        </mxCell>
        <mxCell id="SyLdga9zzhKKT4LGNAI1-9" value="&lt;font style=&quot;font-size: 32px&quot;&gt;mood&lt;/font&gt;" style="rounded=0;whiteSpace=wrap;html=1;" vertex="1" parent="1">
          <mxGeometry x="962.5" y="1030" width="120" height="60" as="geometry" />
        </mxCell>
        <mxCell id="SyLdga9zzhKKT4LGNAI1-20" style="edgeStyle=orthogonalEdgeStyle;rounded=0;orthogonalLoop=1;jettySize=auto;html=1;exitX=1;exitY=0.5;exitDx=0;exitDy=0;entryX=0;entryY=0.5;entryDx=0;entryDy=0;startArrow=none;startFill=0;endArrow=none;endFill=0;" edge="1" parent="1" source="SyLdga9zzhKKT4LGNAI1-10" target="SyLdga9zzhKKT4LGNAI1-19">
          <mxGeometry relative="1" as="geometry" />
        </mxCell>
        <mxCell id="SyLdga9zzhKKT4LGNAI1-23" style="edgeStyle=orthogonalEdgeStyle;rounded=0;orthogonalLoop=1;jettySize=auto;html=1;exitX=0;exitY=0.5;exitDx=0;exitDy=0;entryX=1;entryY=0.5;entryDx=0;entryDy=0;startArrow=none;startFill=0;endArrow=none;endFill=0;" edge="1" parent="1" source="SyLdga9zzhKKT4LGNAI1-10" target="SyLdga9zzhKKT4LGNAI1-22">
          <mxGeometry relative="1" as="geometry" />
        </mxCell>
        <mxCell id="SyLdga9zzhKKT4LGNAI1-34" style="edgeStyle=orthogonalEdgeStyle;rounded=0;orthogonalLoop=1;jettySize=auto;html=1;exitX=0.5;exitY=1;exitDx=0;exitDy=0;entryX=0.5;entryY=0;entryDx=0;entryDy=0;startArrow=none;startFill=0;endArrow=none;endFill=0;" edge="1" parent="1" source="SyLdga9zzhKKT4LGNAI1-10" target="SyLdga9zzhKKT4LGNAI1-32">
          <mxGeometry relative="1" as="geometry" />
        </mxCell>
        <mxCell id="SyLdga9zzhKKT4LGNAI1-58" style="edgeStyle=orthogonalEdgeStyle;rounded=0;orthogonalLoop=1;jettySize=auto;html=1;exitX=1;exitY=0;exitDx=0;exitDy=0;entryX=0.5;entryY=1;entryDx=0;entryDy=0;startArrow=none;startFill=0;endArrow=none;endFill=0;" edge="1" parent="1" source="SyLdga9zzhKKT4LGNAI1-10" target="SyLdga9zzhKKT4LGNAI1-57">
          <mxGeometry relative="1" as="geometry" />
        </mxCell>
        <mxCell id="SyLdga9zzhKKT4LGNAI1-62" style="edgeStyle=orthogonalEdgeStyle;rounded=0;orthogonalLoop=1;jettySize=auto;html=1;exitX=1;exitY=1;exitDx=0;exitDy=0;entryX=0;entryY=0.5;entryDx=0;entryDy=0;startArrow=none;startFill=0;endArrow=none;endFill=0;" edge="1" parent="1" source="SyLdga9zzhKKT4LGNAI1-10" target="SyLdga9zzhKKT4LGNAI1-60">
          <mxGeometry relative="1" as="geometry" />
        </mxCell>
        <mxCell id="SyLdga9zzhKKT4LGNAI1-66" style="edgeStyle=orthogonalEdgeStyle;rounded=0;orthogonalLoop=1;jettySize=auto;html=1;exitX=0;exitY=0.75;exitDx=0;exitDy=0;entryX=0.5;entryY=0;entryDx=0;entryDy=0;startArrow=none;startFill=0;endArrow=none;endFill=0;" edge="1" parent="1" source="SyLdga9zzhKKT4LGNAI1-10" target="SyLdga9zzhKKT4LGNAI1-65">
          <mxGeometry relative="1" as="geometry" />
        </mxCell>
        <mxCell id="SyLdga9zzhKKT4LGNAI1-69" style="edgeStyle=orthogonalEdgeStyle;rounded=0;orthogonalLoop=1;jettySize=auto;html=1;exitX=0.75;exitY=1;exitDx=0;exitDy=0;entryX=0;entryY=0.5;entryDx=0;entryDy=0;startArrow=none;startFill=0;endArrow=none;endFill=0;" edge="1" parent="1" source="SyLdga9zzhKKT4LGNAI1-10" target="SyLdga9zzhKKT4LGNAI1-68">
          <mxGeometry relative="1" as="geometry" />
        </mxCell>
        <mxCell id="SyLdga9zzhKKT4LGNAI1-10" value="&lt;b&gt;&lt;font style=&quot;font-size: 34px&quot;&gt;songs&lt;/font&gt;&lt;/b&gt;" style="rounded=0;whiteSpace=wrap;html=1;" vertex="1" parent="1">
          <mxGeometry x="1030" y="650" width="150" height="90" as="geometry" />
        </mxCell>
        <mxCell id="SyLdga9zzhKKT4LGNAI1-11" value="&lt;font style=&quot;font-size: 30px&quot;&gt;mood&lt;/font&gt;" style="rounded=0;whiteSpace=wrap;html=1;" vertex="1" parent="1">
          <mxGeometry x="1510" y="660" width="130" height="70" as="geometry" />
        </mxCell>
        <mxCell id="SyLdga9zzhKKT4LGNAI1-39" style="edgeStyle=orthogonalEdgeStyle;rounded=0;orthogonalLoop=1;jettySize=auto;html=1;exitX=0;exitY=0.5;exitDx=0;exitDy=0;startArrow=none;startFill=0;endArrow=none;endFill=0;" edge="1" parent="1" source="SyLdga9zzhKKT4LGNAI1-12" target="SyLdga9zzhKKT4LGNAI1-38">
          <mxGeometry relative="1" as="geometry" />
        </mxCell>
        <mxCell id="SyLdga9zzhKKT4LGNAI1-12" value="&lt;font style=&quot;font-size: 33px&quot;&gt;playlist&lt;/font&gt;" style="rounded=0;whiteSpace=wrap;html=1;" vertex="1" parent="1">
          <mxGeometry x="500" y="660" width="160" height="90" as="geometry" />
        </mxCell>
        <mxCell id="SyLdga9zzhKKT4LGNAI1-13" value="&lt;font style=&quot;font-size: 24px&quot;&gt;language&lt;/font&gt;" style="rounded=0;whiteSpace=wrap;html=1;" vertex="1" parent="1">
          <mxGeometry x="1470" y="430" width="120" height="60" as="geometry" />
        </mxCell>
        <mxCell id="SyLdga9zzhKKT4LGNAI1-14" value="&lt;font style=&quot;font-size: 23px&quot;&gt;notification&lt;/font&gt;" style="rounded=0;whiteSpace=wrap;html=1;" vertex="1" parent="1">
          <mxGeometry x="540" y="1340" width="120" height="60" as="geometry" />
        </mxCell>
        <mxCell id="SyLdga9zzhKKT4LGNAI1-26" style="edgeStyle=orthogonalEdgeStyle;rounded=0;orthogonalLoop=1;jettySize=auto;html=1;exitX=1;exitY=0.5;exitDx=0;exitDy=0;entryX=0;entryY=0.5;entryDx=0;entryDy=0;startArrow=none;startFill=0;endArrow=none;endFill=0;" edge="1" parent="1" source="SyLdga9zzhKKT4LGNAI1-15" target="SyLdga9zzhKKT4LGNAI1-25">
          <mxGeometry relative="1" as="geometry" />
        </mxCell>
        <mxCell id="SyLdga9zzhKKT4LGNAI1-15" value="&lt;font style=&quot;font-size: 32px&quot;&gt;aritst&lt;/font&gt;" style="rounded=0;whiteSpace=wrap;html=1;" vertex="1" parent="1">
          <mxGeometry x="540" y="430" width="120" height="60" as="geometry" />
        </mxCell>
        <mxCell id="SyLdga9zzhKKT4LGNAI1-16" value="&lt;font style=&quot;font-size: 32px&quot;&gt;type&lt;/font&gt;" style="rounded=0;whiteSpace=wrap;html=1;" vertex="1" parent="1">
          <mxGeometry x="1690" y="1090" width="120" height="60" as="geometry" />
        </mxCell>
        <mxCell id="SyLdga9zzhKKT4LGNAI1-17" value="" style="rounded=0;whiteSpace=wrap;html=1;" vertex="1" parent="1">
          <mxGeometry x="1050" y="190" width="120" height="60" as="geometry" />
        </mxCell>
        <mxCell id="SyLdga9zzhKKT4LGNAI1-18" value="" style="rounded=0;whiteSpace=wrap;html=1;" vertex="1" parent="1">
          <mxGeometry x="540" y="190" width="120" height="60" as="geometry" />
        </mxCell>
        <mxCell id="SyLdga9zzhKKT4LGNAI1-21" style="edgeStyle=orthogonalEdgeStyle;rounded=0;orthogonalLoop=1;jettySize=auto;html=1;exitX=1;exitY=0.5;exitDx=0;exitDy=0;startArrow=none;startFill=0;endArrow=none;endFill=0;" edge="1" parent="1" source="SyLdga9zzhKKT4LGNAI1-19" target="SyLdga9zzhKKT4LGNAI1-11">
          <mxGeometry relative="1" as="geometry" />
        </mxCell>
        <mxCell id="SyLdga9zzhKKT4LGNAI1-19" value="&lt;font style=&quot;font-size: 26px&quot;&gt;has&lt;/font&gt;" style="rhombus;whiteSpace=wrap;html=1;" vertex="1" parent="1">
          <mxGeometry x="1290" y="660" width="80" height="80" as="geometry" />
        </mxCell>
        <mxCell id="SyLdga9zzhKKT4LGNAI1-24" style="edgeStyle=orthogonalEdgeStyle;rounded=0;orthogonalLoop=1;jettySize=auto;html=1;exitX=0;exitY=0.5;exitDx=0;exitDy=0;entryX=1;entryY=0.5;entryDx=0;entryDy=0;startArrow=none;startFill=0;endArrow=none;endFill=0;" edge="1" parent="1" source="SyLdga9zzhKKT4LGNAI1-22" target="SyLdga9zzhKKT4LGNAI1-12">
          <mxGeometry relative="1" as="geometry" />
        </mxCell>
        <mxCell id="SyLdga9zzhKKT4LGNAI1-22" value="&lt;font style=&quot;font-size: 21px&quot;&gt;features&lt;/font&gt;" style="rhombus;whiteSpace=wrap;html=1;" vertex="1" parent="1">
          <mxGeometry x="770" y="660" width="130" height="90" as="geometry" />
        </mxCell>
        <mxCell id="SyLdga9zzhKKT4LGNAI1-28" style="edgeStyle=orthogonalEdgeStyle;rounded=0;orthogonalLoop=1;jettySize=auto;html=1;exitX=1;exitY=0.5;exitDx=0;exitDy=0;entryX=0;entryY=0.75;entryDx=0;entryDy=0;startArrow=none;startFill=0;endArrow=none;endFill=0;" edge="1" parent="1" source="SyLdga9zzhKKT4LGNAI1-25" target="SyLdga9zzhKKT4LGNAI1-2">
          <mxGeometry relative="1" as="geometry" />
        </mxCell>
        <mxCell id="SyLdga9zzhKKT4LGNAI1-25" value="&lt;font style=&quot;font-size: 25px&quot;&gt;releases&lt;/font&gt;" style="rhombus;whiteSpace=wrap;html=1;" vertex="1" parent="1">
          <mxGeometry x="750" y="430" width="155" height="80" as="geometry" />
        </mxCell>
        <mxCell id="SyLdga9zzhKKT4LGNAI1-31" style="edgeStyle=orthogonalEdgeStyle;rounded=0;orthogonalLoop=1;jettySize=auto;html=1;exitX=0.5;exitY=1;exitDx=0;exitDy=0;entryX=0.5;entryY=0;entryDx=0;entryDy=0;startArrow=none;startFill=0;endArrow=none;endFill=0;" edge="1" parent="1" source="SyLdga9zzhKKT4LGNAI1-29" target="SyLdga9zzhKKT4LGNAI1-10">
          <mxGeometry relative="1" as="geometry" />
        </mxCell>
        <mxCell id="SyLdga9zzhKKT4LGNAI1-29" value="&lt;font style=&quot;font-size: 26px&quot;&gt;has&lt;/font&gt;" style="rhombus;whiteSpace=wrap;html=1;" vertex="1" parent="1">
          <mxGeometry x="1060" y="530" width="80" height="80" as="geometry" />
        </mxCell>
        <mxCell id="SyLdga9zzhKKT4LGNAI1-35" style="edgeStyle=orthogonalEdgeStyle;rounded=0;orthogonalLoop=1;jettySize=auto;html=1;exitX=0.5;exitY=1;exitDx=0;exitDy=0;startArrow=none;startFill=0;endArrow=none;endFill=0;" edge="1" parent="1" source="SyLdga9zzhKKT4LGNAI1-32" target="SyLdga9zzhKKT4LGNAI1-9">
          <mxGeometry relative="1" as="geometry" />
        </mxCell>
        <mxCell id="SyLdga9zzhKKT4LGNAI1-32" value="&lt;font style=&quot;font-size: 27px&quot;&gt;based on&lt;br&gt;&lt;/font&gt;" style="rhombus;whiteSpace=wrap;html=1;" vertex="1" parent="1">
          <mxGeometry x="940" y="820" width="165" height="110" as="geometry" />
        </mxCell>
        <mxCell id="SyLdga9zzhKKT4LGNAI1-40" style="edgeStyle=orthogonalEdgeStyle;rounded=0;orthogonalLoop=1;jettySize=auto;html=1;exitX=0;exitY=0.5;exitDx=0;exitDy=0;entryX=1;entryY=0.5;entryDx=0;entryDy=0;startArrow=none;startFill=0;endArrow=none;endFill=0;" edge="1" parent="1" source="SyLdga9zzhKKT4LGNAI1-38" target="SyLdga9zzhKKT4LGNAI1-3">
          <mxGeometry relative="1" as="geometry" />
        </mxCell>
        <mxCell id="SyLdga9zzhKKT4LGNAI1-38" value="&lt;font style=&quot;font-size: 26px&quot;&gt;has&lt;/font&gt;" style="rhombus;whiteSpace=wrap;html=1;" vertex="1" parent="1">
          <mxGeometry x="330" y="610" width="80" height="80" as="geometry" />
        </mxCell>
        <mxCell id="SyLdga9zzhKKT4LGNAI1-43" style="edgeStyle=orthogonalEdgeStyle;rounded=0;orthogonalLoop=1;jettySize=auto;html=1;exitX=1;exitY=0.5;exitDx=0;exitDy=0;entryX=0;entryY=0.25;entryDx=0;entryDy=0;startArrow=none;startFill=0;endArrow=none;endFill=0;" edge="1" parent="1" source="SyLdga9zzhKKT4LGNAI1-41" target="SyLdga9zzhKKT4LGNAI1-15">
          <mxGeometry relative="1" as="geometry" />
        </mxCell>
        <mxCell id="SyLdga9zzhKKT4LGNAI1-41" value="&lt;font style=&quot;font-size: 29px&quot;&gt;based on&lt;br&gt;&lt;/font&gt;" style="rhombus;whiteSpace=wrap;html=1;" vertex="1" parent="1">
          <mxGeometry x="160" y="410" width="180" height="80" as="geometry" />
        </mxCell>
        <mxCell id="SyLdga9zzhKKT4LGNAI1-46" style="edgeStyle=orthogonalEdgeStyle;rounded=0;orthogonalLoop=1;jettySize=auto;html=1;exitX=1;exitY=0.5;exitDx=0;exitDy=0;entryX=0;entryY=0.75;entryDx=0;entryDy=0;startArrow=none;startFill=0;endArrow=none;endFill=0;" edge="1" parent="1" source="SyLdga9zzhKKT4LGNAI1-44" target="SyLdga9zzhKKT4LGNAI1-7">
          <mxGeometry relative="1" as="geometry" />
        </mxCell>
        <mxCell id="SyLdga9zzhKKT4LGNAI1-44" value="&lt;font style=&quot;font-size: 24px&quot;&gt;makes&lt;/font&gt;" style="rhombus;whiteSpace=wrap;html=1;" vertex="1" parent="1">
          <mxGeometry x="170" y="1090" width="120" height="70" as="geometry" />
        </mxCell>
        <mxCell id="SyLdga9zzhKKT4LGNAI1-53" style="edgeStyle=orthogonalEdgeStyle;rounded=0;orthogonalLoop=1;jettySize=auto;html=1;exitX=0.5;exitY=0;exitDx=0;exitDy=0;entryX=0;entryY=1;entryDx=0;entryDy=0;startArrow=none;startFill=0;endArrow=none;endFill=0;" edge="1" parent="1" source="SyLdga9zzhKKT4LGNAI1-47" target="SyLdga9zzhKKT4LGNAI1-12">
          <mxGeometry relative="1" as="geometry" />
        </mxCell>
        <mxCell id="SyLdga9zzhKKT4LGNAI1-47" value="&lt;font style=&quot;font-size: 28px&quot;&gt;creates&lt;/font&gt;" style="rhombus;whiteSpace=wrap;html=1;" vertex="1" parent="1">
          <mxGeometry x="290" y="835" width="160" height="95" as="geometry" />
        </mxCell>
        <mxCell id="SyLdga9zzhKKT4LGNAI1-55" style="edgeStyle=orthogonalEdgeStyle;rounded=0;orthogonalLoop=1;jettySize=auto;html=1;exitX=0.5;exitY=0;exitDx=0;exitDy=0;entryX=0.5;entryY=1;entryDx=0;entryDy=0;startArrow=none;startFill=0;endArrow=none;endFill=0;" edge="1" parent="1" source="SyLdga9zzhKKT4LGNAI1-48" target="SyLdga9zzhKKT4LGNAI1-12">
          <mxGeometry relative="1" as="geometry" />
        </mxCell>
        <mxCell id="SyLdga9zzhKKT4LGNAI1-48" value="&lt;font style=&quot;font-size: 29px&quot;&gt;plays&lt;/font&gt;" style="rhombus;whiteSpace=wrap;html=1;" vertex="1" parent="1">
          <mxGeometry x="490" y="840" width="160" height="100" as="geometry" />
        </mxCell>
        <mxCell id="SyLdga9zzhKKT4LGNAI1-56" style="edgeStyle=orthogonalEdgeStyle;rounded=0;orthogonalLoop=1;jettySize=auto;html=1;exitX=0.5;exitY=0;exitDx=0;exitDy=0;entryX=1;entryY=1;entryDx=0;entryDy=0;startArrow=none;startFill=0;endArrow=none;endFill=0;" edge="1" parent="1" source="SyLdga9zzhKKT4LGNAI1-49" target="SyLdga9zzhKKT4LGNAI1-12">
          <mxGeometry relative="1" as="geometry" />
        </mxCell>
        <mxCell id="SyLdga9zzhKKT4LGNAI1-49" value="&lt;font style=&quot;font-size: 25px&quot;&gt;shares&lt;/font&gt;" style="rhombus;whiteSpace=wrap;html=1;" vertex="1" parent="1">
          <mxGeometry x="752.5" y="850" width="150" height="100" as="geometry" />
        </mxCell>
        <mxCell id="SyLdga9zzhKKT4LGNAI1-59" style="edgeStyle=orthogonalEdgeStyle;rounded=0;orthogonalLoop=1;jettySize=auto;html=1;exitX=1;exitY=0.5;exitDx=0;exitDy=0;entryX=0;entryY=0.5;entryDx=0;entryDy=0;startArrow=none;startFill=0;endArrow=none;endFill=0;" edge="1" parent="1" source="SyLdga9zzhKKT4LGNAI1-57" target="SyLdga9zzhKKT4LGNAI1-13">
          <mxGeometry relative="1" as="geometry" />
        </mxCell>
        <mxCell id="SyLdga9zzhKKT4LGNAI1-57" value="&lt;font style=&quot;font-size: 23px&quot;&gt;based on&lt;br&gt;&lt;/font&gt;" style="rhombus;whiteSpace=wrap;html=1;" vertex="1" parent="1">
          <mxGeometry x="1230" y="415" width="150" height="110" as="geometry" />
        </mxCell>
        <mxCell id="SyLdga9zzhKKT4LGNAI1-64" style="edgeStyle=orthogonalEdgeStyle;rounded=0;orthogonalLoop=1;jettySize=auto;html=1;exitX=1;exitY=0.5;exitDx=0;exitDy=0;entryX=0;entryY=0.75;entryDx=0;entryDy=0;startArrow=none;startFill=0;endArrow=none;endFill=0;" edge="1" parent="1" source="SyLdga9zzhKKT4LGNAI1-60" target="SyLdga9zzhKKT4LGNAI1-8">
          <mxGeometry relative="1" as="geometry" />
        </mxCell>
        <mxCell id="SyLdga9zzhKKT4LGNAI1-60" value="&lt;font style=&quot;font-size: 26px&quot;&gt;stored in&lt;br&gt;&lt;/font&gt;" style="rhombus;whiteSpace=wrap;html=1;" vertex="1" parent="1">
          <mxGeometry x="1330" y="860" width="170" height="120" as="geometry" />
        </mxCell>
        <mxCell id="SyLdga9zzhKKT4LGNAI1-67" style="edgeStyle=orthogonalEdgeStyle;rounded=0;orthogonalLoop=1;jettySize=auto;html=1;entryX=0;entryY=0.75;entryDx=0;entryDy=0;startArrow=none;startFill=0;endArrow=none;endFill=0;" edge="1" parent="1" source="SyLdga9zzhKKT4LGNAI1-65" target="SyLdga9zzhKKT4LGNAI1-6">
          <mxGeometry relative="1" as="geometry" />
        </mxCell>
        <mxCell id="SyLdga9zzhKKT4LGNAI1-65" value="&lt;font style=&quot;font-size: 27px&quot;&gt;has&lt;/font&gt;" style="rhombus;whiteSpace=wrap;html=1;" vertex="1" parent="1">
          <mxGeometry x="870" y="1150" width="80" height="80" as="geometry" />
        </mxCell>
        <mxCell id="SyLdga9zzhKKT4LGNAI1-70" style="edgeStyle=orthogonalEdgeStyle;rounded=0;orthogonalLoop=1;jettySize=auto;html=1;entryX=0;entryY=0.75;entryDx=0;entryDy=0;startArrow=none;startFill=0;endArrow=none;endFill=0;" edge="1" parent="1" source="SyLdga9zzhKKT4LGNAI1-68" target="SyLdga9zzhKKT4LGNAI1-5">
          <mxGeometry relative="1" as="geometry" />
        </mxCell>
        <mxCell id="SyLdga9zzhKKT4LGNAI1-77" style="edgeStyle=orthogonalEdgeStyle;rounded=0;orthogonalLoop=1;jettySize=auto;html=1;exitX=1;exitY=0.5;exitDx=0;exitDy=0;entryX=0;entryY=0.5;entryDx=0;entryDy=0;startArrow=none;startFill=0;endArrow=none;endFill=0;" edge="1" parent="1" source="SyLdga9zzhKKT4LGNAI1-68" target="SyLdga9zzhKKT4LGNAI1-16">
          <mxGeometry relative="1" as="geometry" />
        </mxCell>
        <mxCell id="SyLdga9zzhKKT4LGNAI1-68" value="&lt;font style=&quot;font-size: 31px&quot;&gt;are streamed&lt;br&gt;&lt;/font&gt;&lt;font style=&quot;font-size: 22px&quot;&gt;&amp;nbsp;based on&lt;/font&gt;" style="rhombus;whiteSpace=wrap;html=1;" vertex="1" parent="1">
          <mxGeometry x="1290" y="1050" width="270" height="140" as="geometry" />
        </mxCell>
        <mxCell id="SyLdga9zzhKKT4LGNAI1-73" style="edgeStyle=orthogonalEdgeStyle;rounded=0;orthogonalLoop=1;jettySize=auto;html=1;exitX=0.5;exitY=1;exitDx=0;exitDy=0;entryX=0.5;entryY=0;entryDx=0;entryDy=0;startArrow=none;startFill=0;endArrow=none;endFill=0;" edge="1" parent="1" source="SyLdga9zzhKKT4LGNAI1-71" target="SyLdga9zzhKKT4LGNAI1-14">
          <mxGeometry relative="1" as="geometry" />
        </mxCell>
        <mxCell id="SyLdga9zzhKKT4LGNAI1-71" value="&lt;font style=&quot;font-size: 24px&quot;&gt;gets&lt;/font&gt;" style="rhombus;whiteSpace=wrap;html=1;" vertex="1" parent="1">
          <mxGeometry x="560" y="1140" width="80" height="80" as="geometry" />
        </mxCell>
      </root>
    </mxGraphModel>
  </diagram>
</mxfile>
